<?xml version="1.0" encoding="iso-8859-1"?>
<!-- Uploaded to: SVG Repo, www.svgrepo.com, Generator: SVG Repo Mixer Tools -->
<!DOCTYPE svg PUBLIC "-//W3C//DTD SVG 1.1//EN" "http://www.w3.org/Graphics/SVG/1.1/DTD/svg11.dtd">
<svg fill="#000000" height="800px" width="800px" version="1.1" id="Capa_1" xmlns="http://www.w3.org/2000/svg" xmlns:xlink="http://www.w3.org/1999/xlink" 
	 viewBox="0 0 459.779 459.779" xml:space="preserve">
<g>
	<path d="M444.83,166.538c10.945-15.06,16.169-33.575,14.709-52.134s-9.513-36.03-22.677-49.194
		c-14.779-14.779-34.428-22.918-55.329-22.918c-20.9,0-40.55,8.139-55.328,22.918c-13.164,13.164-21.218,30.635-22.677,49.194
		c-0.688,8.752,0.128,17.489,2.311,25.864c-25.649-6.891-52.697-10.392-80.629-10.392c-8.375,0-16.748,0.329-25.035,0.969
		c7.594-13.482,11.08-28.99,9.857-44.538c-1.459-18.558-9.514-36.029-22.679-49.194c-14.779-14.78-34.429-22.919-55.328-22.919
		s-40.548,8.14-55.328,22.919C61.918,51.891,53.78,71.549,53.78,92.466c0,16.62,5.171,32.519,14.953,45.98l17.969,24.724
		c-24.924,13.623-45.745,30.945-60.528,50.472C9.051,236.26,0,261.881,0,287.736c0,42.699,23.795,82.648,67.003,112.486
		c42.359,29.253,98.545,45.364,158.207,45.364c61.62,0,119.104-17.027,161.861-47.946c3.357-2.427,4.11-7.116,1.683-10.472
		s-7.117-4.11-10.472-1.683c-40.221,29.084-94.583,45.101-153.072,45.101C109.3,430.586,15,366.503,15,287.736
		c0-22.881,7.783-44.764,23.133-65.041c13.844-18.285,33.63-34.545,57.46-47.293l13.954,19.199
		c-10.754,13.289-17.32,29.59-18.671,46.76c-1.583,20.14,4.085,40.232,15.962,56.575l53.966,74.257h-10.079
		c-4.142,0-7.5,3.358-7.5,7.5s3.358,7.5,7.5,7.5h49.603c4.142,0,7.5-3.358,7.5-7.5s-3.358-7.5-7.5-7.5h-10.079l53.967-74.257
		c11.877-16.343,17.546-36.435,15.962-56.575c-1.583-20.141-10.323-39.1-24.609-53.385c-16.094-16.094-37.096-24.341-58.234-24.787
		l11.766-16.191c11.839-1.403,23.967-2.123,36.109-2.123c30.597,0,60.043,4.393,87.586,13.035c1.618,2.978,3.431,5.862,5.441,8.627
		l48.575,66.838h-10.079c-4.142,0-7.5,3.358-7.5,7.5s3.358,7.5,7.5,7.5h49.603c4.142,0,7.5-3.358,7.5-7.5s-3.358-7.5-7.5-7.5
		h-10.079l11.701-16.101c17.999,21.449,27.463,45.646,27.463,70.46c0,22.168-7.327,43.437-21.777,63.215
		c-2.444,3.344-1.713,8.037,1.631,10.48c1.334,0.975,2.883,1.445,4.418,1.445c2.312,0,4.593-1.066,6.062-3.076
		c16.136-22.085,24.666-47.005,24.666-72.064c0-29.529-11.527-58.08-33.403-82.928L444.83,166.538z M68.78,92.466
		c0-16.91,6.579-32.801,18.523-44.747c11.947-11.946,27.829-18.526,44.722-18.526s32.775,6.58,44.722,18.526
		c22.138,22.137,24.845,56.584,6.434,81.911l-25.788,35.484c-13.422,2.914-26.26,9.102-37.24,18.565l-39.286-54.053
		C72.959,118.747,68.78,105.897,68.78,92.466z M245.224,242.538c1.304,16.583-3.363,33.125-13.142,46.581l-56.555,77.818
		l-56.554-77.818c-9.779-13.456-14.446-29.999-13.142-46.581c1.304-16.583,8.5-32.193,20.261-43.955
		c13.631-13.631,31.53-20.444,49.435-20.444c17.901,0,35.808,6.816,49.435,20.444C236.724,210.345,243.92,225.955,245.224,242.538z
		 M336.812,75.816c11.946-11.946,27.828-18.524,44.722-18.524c16.894,0,32.776,6.579,44.722,18.524
		c22.136,22.135,24.844,56.581,6.44,81.904l-51.162,70.399l-51.163-70.399C311.967,132.397,314.676,97.951,336.812,75.816z"/>
	<path d="M428.468,120.538c0-4.142-3.358-7.5-7.5-7.5s-7.5,3.358-7.5,7.5c0,17.609-14.326,31.935-31.934,31.935
		c-17.609,0-31.935-14.326-31.935-31.935c0-17.608,14.326-31.934,31.935-31.934c4.446,0,8.746,0.894,12.779,2.658
		c3.795,1.657,8.216-0.072,9.876-3.868c1.659-3.795-0.072-8.217-3.868-9.876c-5.939-2.597-12.261-3.914-18.788-3.914
		c-25.88,0-46.935,21.055-46.935,46.934c0,25.88,21.055,46.935,46.935,46.935C407.413,167.472,428.468,146.418,428.468,120.538z"/>
	<path d="M406.383,102.798c0.359,0.897,0.926,1.756,1.62,2.43c2.683,2.764,7.243,2.874,10.15,0.422
		c3.331-2.81,3.461-7.944,0.459-11.032c-2.495-2.422-6.328-2.886-9.291-1.043C406.249,95.487,405.005,99.461,406.383,102.798
		C406.563,103.249,406.193,102.338,406.383,102.798z"/>
	<path d="M124.878,248.018c0,27.928,22.721,50.65,50.649,50.65s50.65-22.722,50.65-50.65s-22.722-50.649-50.65-50.649
		S124.878,220.09,124.878,248.018z M211.177,248.018c0,19.657-15.993,35.65-35.65,35.65s-35.649-15.993-35.649-35.65
		s15.992-35.649,35.649-35.649S211.177,228.361,211.177,248.018z"/>
	<path d="M132.027,137.981c24.594,0,44.603-20.009,44.603-44.603s-20.009-44.604-44.603-44.604S87.423,68.784,87.423,93.378
		S107.433,137.981,132.027,137.981z M132.027,63.775c16.323,0,29.603,13.28,29.603,29.604s-13.28,29.603-29.603,29.603
		s-29.604-13.28-29.604-29.603S115.704,63.775,132.027,63.775z"/>
	<path d="M407.624,369.298c-2.838-1.91-6.74-1.595-9.25,0.725c-2.158,1.995-2.957,5.166-1.999,7.943
		c1.032,2.994,3.919,5.056,7.089,5.062c3.168,0.006,6.06-2.077,7.089-5.062C411.646,374.795,410.431,371.149,407.624,369.298
		C407.223,369.029,408.033,369.568,407.624,369.298z"/>
</g>
</svg>